<svg width="16" height="16" viewBox="0 0 16 16" fill="none" xmlns="http://www.w3.org/2000/svg">
<path d="M15.1831 11.7492C15.0103 12.3918 14.5036 12.8984 13.8611 13.0714C12.6873 13.3926 7.992 13.3926 7.992 13.3926C7.992 13.3926 3.29691 13.3926 2.12311 13.0836C1.49295 12.9107 0.973938 12.3917 0.801086 11.7492C0.492188 10.5755 0.492188 8.14139 0.492188 8.14139C0.492188 8.14139 0.492188 5.69501 0.801086 4.53357C0.974121 3.89106 1.48059 3.38449 2.1232 3.21146C3.30926 2.8902 7.99219 2.8902 7.99219 2.8902C7.99219 2.8902 12.6873 2.8902 13.8611 3.19919C14.5037 3.37214 15.0103 3.8787 15.1833 4.52121C15.4921 5.69501 15.4921 8.12903 15.4921 8.12903C15.4921 8.12903 15.5045 10.5755 15.1831 11.7492ZM6.49713 5.89267V10.3901L10.4015 8.14139L6.49713 5.89267Z" fill="white"/>
</svg>
